<?xml version="1.0" encoding="UTF-8" standalone="no"?>
<svg
   id="Layer_1"
   viewBox="0 0 999.99997 244.32899"
   width="1000"
   height="244.32899"
   version="1.1"
   sodipodi:docname="gatwick-airport-logo.svg"
   inkscape:version="1.3 (0e150ed6c4, 2023-07-21)"
   xmlns:inkscape="http://www.inkscape.org/namespaces/inkscape"
   xmlns:sodipodi="http://sodipodi.sourceforge.net/DTD/sodipodi-0.dtd"
   xmlns="http://www.w3.org/2000/svg"
   xmlns:svg="http://www.w3.org/2000/svg">
  <sodipodi:namedview
     id="namedview8"
     pagecolor="#ffffff"
     bordercolor="#000000"
     borderopacity="0.25"
     inkscape:showpageshadow="2"
     inkscape:pageopacity="0.0"
     inkscape:pagecheckerboard="0"
     inkscape:deskcolor="#d1d1d1"
     inkscape:zoom="0.94321522"
     inkscape:cx="607.49656"
     inkscape:cy="348.27682"
     inkscape:window-width="1920"
     inkscape:window-height="1017"
     inkscape:window-x="-8"
     inkscape:window-y="-8"
     inkscape:window-maximized="1"
     inkscape:current-layer="Layer_1" />
  <defs
     id="defs1">
    <style
       id="style1">.cls-1{fill:#004489;}.cls-2{fill:#099;}</style>
  </defs>
  <path
     class="cls-1"
     d="M 220.60448,44.458889 183.23042,81.832954 C 170.49074,61.293468 148.0013,47.57881 123.30192,47.57881 c -41.27397,0 -68.963279,33.864155 -68.963279,74.55314 0,10.59473 1.754957,20.21449 5.069875,28.72927 C 40.493987,133.70166 28.729282,109.91226 28.729282,83.19792 28.729282,37.049073 67.9883,0 125.05687,0 c 40.68899,0 75.59312,18.069548 95.54761,44.523887 z"
     id="path1"
     style="stroke-width:6.49985" />
  <polygon
     class="cls-2"
     points="30.58,24.89 30.58,36.18 36.89,29.86 36.89,18.58 25.61,18.58 19.3,24.89 "
     id="polygon1"
     transform="matrix(6.4998375,0,0,6.4998375,-8.2547936,-5.2648685)" />
  <path
     class="cls-1"
     d="m 156.19109,187.39032 c -12.93466,7.27981 -27.29931,11.37471 -42.11894,11.37471 C 54.79363,198.76503 6.9548261,150.40624 2.7949302,94.637635 0.90997717,103.54241 0,112.51219 0,121.41697 0,191.22522 46.01885,244.3289 115.76211,244.3289 c 14.23464,0 27.81931,-2.40495 40.49399,-6.69483 v -50.17876 z"
     id="path2"
     style="stroke-width:6.49985" />
  <polygon
     class="cls-1"
     points="61.89,16.39 61.89,13.83 54.69,13.83 54.69,1.51 51.77,1.51 51.77,16.39 "
     id="polygon2"
     transform="matrix(6.4998375,0,0,6.4998375,-8.2547936,-5.2648685)" />
  <path
     class="cls-1"
     d="m 492.81769,53.168671 c 0,18.329542 -13.32468,31.914202 -31.26423,31.914202 -17.93954,0 -31.78419,-13.779656 -31.78419,-31.914202 0,-18.134547 13.45466,-32.174196 31.78419,-32.174196 18.32954,0 31.26423,13.779656 31.26423,32.174196 m 19.43451,0 c 0,-28.599286 -21.31946,-49.7887555 -50.63374,-49.7887555 -29.31426,0 -51.21872,21.7094575 -51.21872,49.7887555 0,28.079298 21.57946,49.398759 51.21872,49.398759 29.63926,0 50.63374,-21.059468 50.63374,-49.398759"
     id="path3"
     style="stroke-width:6.49985" />
  <polygon
     class="cls-1"
     points="97.98,16.56 97.98,1.51 95.1,1.51 95.1,11.29 86.26,1.36 84.6,1.36 84.6,16.39 87.46,16.39 87.46,6.61 96.33,16.56 "
     id="polygon3"
     transform="matrix(6.4998375,0,0,6.4998375,-8.2547936,-5.2648685)" />
  <path
     class="cls-1"
     d="m 732.72669,53.168671 c 0,18.849529 -12.0897,31.394215 -32.30419,31.394215 h -17.48457 v -63.17842 h 17.48457 c 20.21449,0 32.30419,12.674682 32.30419,31.784205 m 19.23952,-0.259993 c 0,-29.054275 -20.2145,-48.2937933 -50.76373,-48.2937933 H 663.89341 V 101.33247 h 37.30907 c 30.54923,0 50.76373,-19.369519 50.76373,-48.423792"
     id="path4"
     style="stroke-width:6.49985" />
  <path
     class="cls-1"
     d="m 858.23855,53.168671 c 0,18.329542 -13.32467,31.914202 -31.26422,31.914202 -17.93955,0 -31.78421,-13.779656 -31.78421,-31.914202 0,-18.134547 13.45466,-32.174196 31.78421,-32.174196 18.32954,0 31.26422,13.779656 31.26422,32.174196 m 19.43452,0 c 0,-28.599286 -21.31947,-49.7887555 -50.63374,-49.7887555 -29.31427,0 -51.21873,21.7094575 -51.21873,49.7887555 0,28.079298 21.57947,49.398759 51.21873,49.398759 29.63926,0 50.63374,-21.059468 50.63374,-49.398759"
     id="path5"
     style="stroke-width:6.49985" />
  <polygon
     class="cls-1"
     points="153.94,16.56 153.94,1.51 151.06,1.51 151.06,11.29 142.21,1.36 140.56,1.36 140.56,16.39 143.42,16.39 143.42,6.61 152.29,16.56 "
     id="polygon5"
     transform="matrix(6.4998375,0,0,6.4998375,-8.2547936,-5.2648685)" />
  <path
     class="cls-1"
     d="m 481.31298,142.67143 h -12.54469 l -42.37894,96.71758 h 20.08449 l 7.73481,-18.71953 h 41.40396 l 7.73481,18.71953 h 20.0845 z m -21.05949,61.94345 14.68964,-34.96912 14.55964,34.96912 H 460.1885 Z"
     id="path6"
     style="stroke-width:6.49985" />
  <polygon
     class="cls-1"
     points="89.06,37.65 89.06,25.35 93.99,25.35 93.99,22.76 81.19,22.76 81.19,25.35 86.14,25.35 86.14,37.65 "
     id="polygon6"
     transform="matrix(6.4998375,0,0,6.4998375,-8.2547936,-5.2648685)" />
  <polygon
     class="cls-1"
     points="103.17,37.65 106.45,27.21 109.84,37.65 112.04,37.65 116.64,22.76 113.74,22.76 112.34,28.1 110.92,33.46 109.29,28.29 107.47,22.76 105.52,22.76 103.72,28.29 102.18,33.52 100.91,28.12 99.49,22.76 96.4,22.76 100.97,37.65 "
     id="polygon7"
     transform="matrix(6.4998375,0,0,6.4998375,-8.2547936,-5.2648685)" />
  <rect
     class="cls-1"
     x="768.73578"
     y="142.67145"
     width="18.979527"
     height="96.717583"
     id="rect7"
     style="stroke-width:6.49985" />
  <path
     class="cls-1"
     d="m 888.4628,216.63958 c -2.59994,1.68997 -10.13975,6.43484 -22.55445,6.43484 -20.21449,0 -33.21417,-12.73967 -33.21417,-32.10919 0,-19.36951 13.12968,-31.97921 33.21417,-31.97921 12.60969,0 20.3445,5.13488 22.55445,6.75984 v 0 -19.8895 c -5.65486,-2.46995 -13.38967,-4.74489 -23.65942,-4.74489 -31.13422,0 -51.8037,21.70946 -51.8037,49.98375 0,28.2743 20.47449,49.85376 51.8037,49.85376 10.46474,0 18.06956,-2.20995 23.65942,-4.6149 v -19.62949 z"
     id="path7"
     style="stroke-width:6.49985" />
  <polygon
     class="cls-1"
     points="155.12,37.68 147.58,30.08 154.95,22.71 151.42,22.71 145,29.12 145,22.71 142.07,22.71 142.07,37.68 145,37.68 145,31.42 151.28,37.68 "
     id="polygon8"
     transform="matrix(6.4998375,0,0,6.4998375,-8.2547936,-5.2648685)" />
  <path
     class="cls-1"
     d="m 367.30582,201.62495 h 23.98441 v 18.39456 c -4.54989,2.20993 -10.65975,3.76989 -18.00456,3.76989 -18.39454,0 -33.34416,-13.25967 -33.34416,-32.69418 0,-19.43451 14.23463,-32.1092 33.47415,-32.1092 11.63471,0 19.04453,3.63992 22.48944,5.71987 l 12.4147,-12.4147 -2.40495,-1.88495 c -3.57491,-2.33994 -13.84465,-9.29477 -33.34415,-9.29477 -30.74424,0 -52.4537,21.83946 -52.4537,49.98375 0,28.14429 21.70946,49.85376 52.0637,49.85376 20.34449,0 31.8492,-7.34481 37.04907,-11.37472 v -44.13389 h -25.73936 z"
     id="path8"
     style="stroke-width:6.49985" />
</svg>
